<?xml version="1.0" encoding="utf-8"?>
<!-- Generator: Adobe Illustrator 28.0.0, SVG Export Plug-In . SVG Version: 6.00 Build 0)  -->
<svg version="1.1" id="Laag_1" xmlns="http://www.w3.org/2000/svg" xmlns:xlink="http://www.w3.org/1999/xlink" x="0px" y="0px"
	 viewBox="0 0 285 201.5" style="enable-background:new 0 0 285 201.5;" xml:space="preserve">
<style type="text/css">
	.st0{fill:#464545;}
	.st1{fill:#FFCA12;}
	.st2{fill:#DC892A;}
	.st3{fill:#ED9C00;}
	.st4{fill:#D0380D;}
	.st5{fill:#DD6826;}
	.st6{fill:#94BE1C;}
	.st7{fill:#CAD229;}
	.st8{fill:#E7DF09;}
	.st9{fill:#68B03D;}
</style>
<g id="Page-1">
	<g id="KV_x5F_Klanten_x5F_Vertellen_x5F_RGB-01-_x28_1_x29_">
		<polygon id="Shape" class="st0" points="2.8,58.5 6.7,58.5 6.7,83.7 20.6,69.2 25.4,69.2 14.6,80.3 25.8,95 21.2,95 11.9,83 
			6.7,88.3 6.7,95 2.8,95 		"/>
		<rect id="Rectangle-path" x="30.4" y="58.5" class="st0" width="3.9" height="36.5"/>
		<g id="Group">
			<path id="Shape_00000183229967292275190830000005374908612871225262_" class="st0" d="M40.4,82.2L40.4,82.2
				c0-8.6,6.2-13.6,12.4-13.6c4.8,0,7.9,2.6,9.9,5.5v-5h3.9V95h-3.9v-5.2c-2.1,3.1-5.2,5.8-9.9,5.8C46.6,95.6,40.4,90.7,40.4,82.2
				 M62.9,82.1L62.9,82.1c0-6.1-4.6-10.1-9.4-10.1c-5,0-9.1,3.7-9.1,10v0.1c0,6.1,4.3,10,9.1,10S62.9,88.1,62.9,82.1"/>
			<path id="Shape_00000139295642089547409220000014501531917533017529_" class="st0" d="M73.9,69.2h3.9v4.5
				c1.7-2.8,4.4-5.1,8.9-5.1c6.3,0,9.9,4.2,9.9,10.4v16h-3.9V79.9c0-4.8-2.6-7.8-7.2-7.8c-4.5,0-7.8,3.3-7.8,8.1V95h-3.9L73.9,69.2
				L73.9,69.2z"/>
			<path id="Shape_00000106858821790683109610000006219472739191624350_" class="st0" d="M104.9,88.2V72.6h-3.6v-3.4h3.6v-7.8h3.9
				v7.8h8.2v3.4h-8.2v15.1c0,3.2,1.8,4.3,4.4,4.3c1.3,0,2.4-0.2,3.8-0.9v3.3c-1.4,0.7-2.8,1.1-4.7,1.1
				C108,95.5,104.9,93.4,104.9,88.2"/>
			<path id="Shape_00000067234676177623681660000015358720717891386508_" class="st0" d="M120.1,82.2L120.1,82.2
				c0-7.6,5.3-13.6,12.4-13.6c7.7,0,12.1,6.1,12.1,13.7c0,0.5,0,0.8-0.1,1.3H124c0.6,5.6,4.5,8.8,9.1,8.8c3.6,0,6.1-1.5,8.2-3.7
				l2.4,2.2c-2.6,2.9-5.8,4.9-10.7,4.9C125.9,95.6,120.1,90.2,120.1,82.2L120.1,82.2z M140.7,80.7c-0.4-4.7-3.1-8.8-8.3-8.8
				c-4.5,0-7.9,3.8-8.4,8.8H140.7z"/>
			<path id="Shape_00000041295531669756392020000002875851058284263355_" class="st0" d="M150.1,69.2h3.9v4.5
				c1.7-2.8,4.4-5.1,8.9-5.1c6.3,0,9.9,4.2,9.9,10.4v16h-3.9V79.9c0-4.8-2.6-7.8-7.2-7.8c-4.5,0-7.8,3.3-7.8,8.1V95H150L150.1,69.2
				L150.1,69.2z"/>
			<polygon id="Shape_00000029745010913521432210000014378680633362350250_" class="st0" points="0.3,113.9 6.8,113.9 13.9,133.3 
				21.1,113.9 27.4,113.9 16.6,140.5 11.1,140.5 			"/>
			<path id="Shape_00000072269610827627477590000006288229914835310769_" class="st0" d="M29.3,127.2L29.3,127.2
				c0-7.7,5.4-13.9,12.9-13.9c8.4,0,12.7,6.6,12.7,14.2c0,0.5-0.1,1.1-0.1,1.7H35.3c0.7,4.3,3.7,6.7,7.6,6.7c3,0,5.1-1.1,7.2-3.2
				l3.6,3.2c-2.5,3-6,5-10.8,5C35.2,140.9,29.3,135.4,29.3,127.2L29.3,127.2z M48.8,125.2c-0.4-3.9-2.7-7-6.7-7
				c-3.7,0-6.3,2.9-6.9,7H48.8z"/>
			<path id="Shape_00000034071369486967077540000011949868034273678228_" class="st0" d="M60.6,113.9h6.1v6c1.7-4,4.7-6.7,9.4-6.5
				v6.4h-0.4c-5.3,0-9,3.5-9,10.5v10.1h-6.1V113.9z"/>
			<path id="Shape_00000032636652568642819310000018338447137965093760_" class="st0" d="M82.2,133v-13.9h-3.4v-5.2h3.4v-7.3h6.1
				v7.3h7.1v5.2h-7.1v13c0,2.4,1.2,3.3,3.3,3.3c1.4,0,2.6-0.3,3.8-0.9v5c-1.5,0.9-3.2,1.4-5.5,1.4C85.3,140.8,82.2,138.8,82.2,133"
				/>
			<path id="Shape_00000038407101156202002400000001016625869868330384_" class="st0" d="M98.9,127.2L98.9,127.2
				c0-7.7,5.4-13.9,12.9-13.9c8.4,0,12.7,6.6,12.7,14.2c0,0.5-0.1,1.1-0.1,1.7H105c0.7,4.3,3.7,6.7,7.6,6.7c3,0,5.1-1.1,7.2-3.2
				l3.6,3.2c-2.5,3-6,5-10.8,5C104.9,140.9,98.9,135.4,98.9,127.2L98.9,127.2z M118.5,125.2c-0.4-3.9-2.7-7-6.7-7
				c-3.7,0-6.3,2.9-6.9,7H118.5z"/>
			
				<rect id="Rectangle-path_00000038388570087678840660000004902784690689982907_" x="130.6" y="103.8" class="st0" width="6.1" height="36.5"/>
			
				<rect id="Rectangle-path_00000115491028126623385800000004623040016920013458_" x="144.6" y="103.8" class="st0" width="6.1" height="36.5"/>
			<path id="Shape_00000132768302387314555000000017939135779128684681_" class="st0" d="M156.8,127.2L156.8,127.2
				c0-7.7,5.4-13.9,12.9-13.9c8.4,0,12.7,6.6,12.7,14.2c0,0.5-0.1,1.1-0.1,1.7h-19.4c0.7,4.3,3.7,6.7,7.6,6.7c3,0,5.1-1.1,7.2-3.2
				l3.6,3.2c-2.5,3-6,5-10.8,5C162.7,140.9,156.8,135.4,156.8,127.2L156.8,127.2z M176.3,125.2c-0.4-3.9-2.7-7-6.7-7
				c-3.7,0-6.3,2.9-6.9,7H176.3z"/>
			<path id="Shape_00000073707292242993128890000003211775899807296697_" class="st0" d="M188.1,113.9h6.1v4.1
				c1.7-2.5,4.2-4.6,8.3-4.6c6,0,9.4,4,9.4,10.1v16.9h-6.1v-15c0-4.1-2.1-6.5-5.7-6.5c-3.5,0-6,2.5-6,6.6v14.9H188v-26.5H188.1z"/>
			<path id="Shape_00000078765074000154871420000010878121632299977111_" class="st1" d="M221.9,20.3l-7.6-14.5
				c-12.6,6.6-21.9,18.7-24.5,33.2l16.5,3C207.8,32.6,213.7,24.6,221.9,20.3"/>
			<path id="Shape_00000021830311014472241640000001406697441349449856_" class="st2" d="M206,46.7c0-1.6,0.1-3.1,0.4-4.6l-16.5-3
				c-0.5,2.6-0.7,5.3-0.8,8c0,3.8,0.4,7.5,1.2,11.1l16.7-3.8C206.3,51.8,206,49.3,206,46.7"/>
			<path id="Shape_00000013910503274602994880000005724806429263645867_" class="st3" d="M206.9,54.2L190.2,58
				c1.2,5.1,3.2,9.9,5.9,14.3l14.8-9.2C209.1,60.5,207.8,57.4,206.9,54.2"/>
			<path id="Shape_00000019640371640961604160000000013474898623047040_" class="st4" d="M210.9,63.2l-14.8,9.2
				c2.2,3.5,4.8,6.7,7.8,9.6c-8.1,2.5-16.3,3.7-16.3,3.7c0.3,0.3,9.5,6.6,24,9.6l11.1-21.6C218,71.2,213.9,67.6,210.9,63.2"/>
			<path id="Shape_00000074436416736574792080000003537627880006652566_" class="st5" d="M235.8,76.5c-4.7,0-9.1-1.1-13-3
				l-11.1,21.6c7,1.5,15.3,2.1,24.5,1V76.5H235.8"/>
			<path id="Shape_00000073720405269972737350000009381362730206213525_" class="st6" d="M236.1,76.5v19.7c4.3-0.5,8.7-1.5,13.3-2.9
				l0,0c4.1-1.2,7.9-3,11.4-5.2l-9.7-15.8C246.8,74.9,241.7,76.4,236.1,76.5"/>
			<path id="Shape_00000070117240997548454200000009104108300551805334_" class="st7" d="M265.6,46.7c0,10.8-5.8,20.3-14.4,25.5
				l9.7,15.8c6.7-4.2,12.3-10.1,16.2-17.1l0,0c3.8-6.8,6-14.6,6.1-22.8c0-3.6-0.3-7.1-1-10.5l-17.1,3.7
				C265.4,43,265.6,44.8,265.6,46.7"/>
			<path id="Shape_00000055706545649049802940000018263950584103869618_" class="st8" d="M236.7,0.4c-8.1-0.1-15.7,1.8-22.4,5.3
				l7.6,14.5c4.1-2.2,8.9-3.4,13.9-3.4c14.6,0,26.8,10.5,29.3,24.4l17.1-3.7C277.7,16.6,259.1,0.7,236.7,0.4"/>
			<path id="Shape_00000044882571361717833450000005063127606676954044_" class="st9" d="M234.5,44.6L226,31.7h-14.6L232,63.6h12
				c6.6-32,14.7-48,40.9-59.6C260.8,4.7,241.3,22.5,234.5,44.6"/>
		</g>
	</g>
</g>
<polygon class="st1" points="24.7,155.1 32.1,170 48.6,172.3 36.7,183.9 39.6,200.3 24.9,192.6 10.2,200.4 12.9,184 1,172.5 
	17.4,170 "/>
<polygon class="st1" points="84,154.9 91.4,169.8 107.8,172.1 96,183.7 98.9,200.1 84.1,192.4 69.4,200.2 72.2,183.8 60.2,172.3 
	76.7,169.8 "/>
<polygon class="st1" points="143.2,154.7 150.6,169.6 167.1,171.9 155.2,183.5 158.1,199.9 143.4,192.2 128.7,200 131.4,183.6 
	119.5,172.1 135.9,169.6 "/>
<polygon class="st1" points="202.5,154.5 209.9,169.4 226.3,171.7 214.5,183.3 217.4,199.7 202.6,192 188,199.8 190.7,183.4 
	178.7,171.9 195.2,169.4 "/>
<polygon class="st1" points="261.7,154.3 261.9,191.8 247.2,199.6 250,183.3 238,171.7 254.4,169.2 "/>
</svg>
