<svg xmlns="http://www.w3.org/2000/svg" xmlns:xlink="http://www.w3.org/1999/xlink" viewBox="0 0 72 72"><defs><style>.cls-1{opacity:0.08;}.cls-2{fill:url(#linear-gradient);}.cls-3{fill:url(#linear-gradient-2);}.cls-4{fill:url(#linear-gradient-3);}.cls-5{fill:url(#linear-gradient-4);}.cls-6{fill:#005e5d;}.cls-7{fill:#ffd100;}</style><linearGradient id="linear-gradient" x1="30.078" y1="45.259" x2="58.293" y2="17.043" gradientTransform="translate(70.991 70.071) rotate(180)" gradientUnits="userSpaceOnUse"><stop offset="0" stop-color="#005e5d"/><stop offset="0.644" stop-color="#009695"/></linearGradient><linearGradient id="linear-gradient-2" x1="27.859" y1="61.612" x2="41.71" y2="47.761" gradientUnits="userSpaceOnUse"><stop offset="0" stop-color="#005e5d"/><stop offset="0.448" stop-color="#008584"/><stop offset="0.644" stop-color="#009695"/></linearGradient><linearGradient id="linear-gradient-3" x1="40.869" y1="34.8" x2="21.764" y2="53.904" gradientUnits="userSpaceOnUse"><stop offset="0" stop-color="#00c4bb"/><stop offset="1" stop-color="#009185"/></linearGradient><linearGradient id="linear-gradient-4" x1="32.996" y1="44.035" x2="50.996" y2="44.035" gradientUnits="userSpaceOnUse"><stop offset="0" stop-opacity="0.05"/><stop offset="1" stop-opacity="0.12"/></linearGradient></defs><title>pi</title><g id="Layer_7" data-name="Layer 7"><path class="cls-1" d="M52.132,39.338a5.387,5.387,0,0,0-4.353-4.9l-.209-2.991A16.407,16.407,0,0,0,30.058,16.222l-.184.013A16.407,16.407,0,0,0,14.651,33.747l1.924,27.525,10.974-.767,10.973-.767L49.5,58.97,48.5,44.8A5.386,5.386,0,0,0,52.132,39.338Z"/><path class="cls-2" d="M19,13.035H52a0,0,0,0,1,0,0V40.628A16.408,16.408,0,0,1,35.588,57.035H35.4A16.408,16.408,0,0,1,19,40.628V13.035A0,0,0,0,1,19,13.035Z" transform="translate(70.991 70.071) rotate(-180)"/><path class="cls-3" d="M41,50.915v6.12H30v-6.12a14.064,14.064,0,0,0,11,0Z"/><path class="cls-4" d="M41,27.035c-4.54,7.64-19,8-19,8v5a12.911,12.911,0,0,0,8,11.88,14.064,14.064,0,0,0,11,0,13.5,13.5,0,0,0,4.01-2.62A12.706,12.706,0,0,0,49,40.035v-8S43.286,31.615,41,27.035Z"/><path class="cls-5" d="M49,37.035v3.714c0,3.137-3.647,5.88-8.64,6.879a2.306,2.306,0,0,0-2.15-1.593H35.364a2.5,2.5,0,0,0,0,5h2.842a2.348,2.348,0,0,0,2.088-1.342C46.53,48.62,51,45.079,51,40.749V37.035Z"/><path class="cls-6" d="M36.5,48.035v-2c6.776,0,12.5-3.337,12.5-7.286V35.035h2v3.714C51,43.956,44.627,48.035,36.5,48.035Z"/><rect class="cls-7" x="34.996" y="44.035" width="8" height="5" rx="2.5"/><path class="cls-6" d="M50.6,43.035h0a1.6,1.6,0,0,1-1.6-1.6v-7.6a1.6,1.6,0,0,1,1.6-1.6h0a5.4,5.4,0,0,1,5.4,5.4h0A5.4,5.4,0,0,1,50.6,43.035Z"/></g></svg>