<svg xmlns="http://www.w3.org/2000/svg" width="72" height="72" viewBox="0 0 72 72"><defs><linearGradient id="pr-money-capital-a" x1="-.012%" x2="99.995%" y1="49.994%" y2="49.994%"><stop offset="0%" stop-opacity=".05"/><stop offset="100%" stop-opacity=".12"/></linearGradient><linearGradient id="pr-money-capital-b" x1="74.071%" x2="25.101%" y1="29.82%" y2="98.117%"><stop offset="0%" stop-color="#00C5BC"/><stop offset="100%" stop-color="#009286"/></linearGradient><linearGradient id="pr-money-capital-c" x1="158.628%" x2="10.802%" y1="50%" y2="50%"><stop offset="0%" stop-color="#009796"/><stop offset="100%" stop-color="#005E5D"/></linearGradient><linearGradient id="pr-money-capital-d" x1="-.013%" x2="100.013%" y1="50%" y2="50%"><stop offset="0%" stop-opacity=".05"/><stop offset="100%" stop-opacity=".12"/></linearGradient><linearGradient id="pr-money-capital-e" x1="108.566%" x2="-1.512%" y1="24.541%" y2="72.401%"><stop offset="0%" stop-color="#FFF"/><stop offset="100%" stop-color="#E3E3E3"/></linearGradient><linearGradient id="pr-money-capital-f" x1="86.797%" x2="17.817%" y1="5.249%" y2="110.137%"><stop offset="0%" stop-color="#009796"/><stop offset="100%" stop-color="#005E5D"/></linearGradient></defs><g fill="none" fill-rule="evenodd" transform="translate(5 14)"><path fill="url(#pr-money-capital-a)" d="M43.2 28.935c-1.128-7.114-5.3-13.955-12.32-14.98a1.6 1.6 0 0 0 .162-.824 1.438 1.438 0 0 0-1.465-1.4l-.383.027 3.32-6.247-4.13-1.716L25.6 7l-3.2-2.783-3.851 2.274 4.157 5.724-.383.027a1.437 1.437 0 0 0-1.256 1.591c.02.29.118.568.283.807a11.825 11.825 0 0 0-4.481 2.536 3.993 3.993 0 1 0-4.267 6.51A22.2 22.2 0 0 0 11.5 28a4.979 4.979 0 0 0-.244 9.881c.109 6.56.392 13.2.392 13.2l33.917-2.367s-1.09-11.765-2.365-19.779z"/><path fill="url(#pr-money-capital-b)" fill-rule="nonzero" d="M33 10.951l5-8-4-2-3 3-3-3-4 2 5 8c-8.743 0-13.4 8.47-14.031 16.1-.631 7.63-.969 19.896-.969 19.896h34s-.265-11.808-.974-19.891C46.317 18.973 41.743 10.952 33 10.951z"/><path fill="url(#pr-money-capital-c)" fill-rule="nonzero" d="M34.636 11.947h-7.272c-.79-.04-1.4-.71-1.364-1.5a1.437 1.437 0 0 1 1.364-1.5h7.272c.79.04 1.4.71 1.364 1.5.036.79-.574 1.46-1.364 1.5z"/><circle cx="4" cy="23.947" r="3.999" fill="url(#pr-money-capital-d)" fill-rule="nonzero"/><circle cx="14" cy="30.947" r="5" fill="#FFD200" fill-rule="nonzero"/><circle cx="16" cy="17.947" r="3.999" fill="#FFD200" fill-rule="nonzero"/><circle cx="6" cy="21.947" r="3.999" fill="#FFD200" fill-rule="nonzero"/><circle cx="14" cy="30.947" r="5" fill="#000" fill-rule="nonzero" opacity=".2"/><path fill="url(#pr-money-capital-c)" fill-rule="nonzero" d="M34.636 11.947h-7.272c-.79-.04-1.4-.71-1.364-1.5a1.437 1.437 0 0 1 1.364-1.5h7.272c.79.04 1.4.71 1.364 1.5.036.79-.574 1.46-1.364 1.5z"/><circle cx="31.255" cy="29.728" r="8.995" fill="url(#pr-money-capital-e)" fill-rule="nonzero"/><path fill="url(#pr-money-capital-f)" fill-rule="nonzero" d="M31.805 35.408c-2.608 0-3.7-1.193-4.008-3.682h-.839V30.4h.751c-.014-.191-.014-.382-.014-.574 0-.207 0-.4.014-.6h-.751V27.9h.883c.4-2.49 1.651-3.58 3.89-3.58a8.337 8.337 0 0 1 2.489.4l-.574 2.018a4.921 4.921 0 0 0-1.813-.368c-.853 0-1.37.265-1.59 1.532h3.329l-.147 1.326h-3.3c-.015.206-.015.4-.015.6 0 .192 0 .383.015.574h3.447l-.147 1.327h-3.211c.2 1.443.736 1.635 1.782 1.635a3.5 3.5 0 0 0 1.841-.516l.413 2.062a6.332 6.332 0 0 1-2.445.498z"/><path fill="#000" fill-rule="nonzero" d="M31.255 20.734a8.981 8.981 0 0 0-7.666 13.681l12.353-12.353a8.938 8.938 0 0 0-4.687-1.328z" opacity=".04"/></g></svg>