<?xml version="1.0" encoding="UTF-8"?>
<svg xmlns="http://www.w3.org/2000/svg" xmlns:xlink="http://www.w3.org/1999/xlink" viewBox="0 0 72 72">
  <defs>
    <style>
      .cls-1 {
        fill: url(#linear-gradient-2);
      }

      .cls-2 {
        fill: #ffd100;
      }

      .cls-3 {
        fill: url(#linear-gradient);
      }

      .cls-4 {
        isolation: isolate;
        opacity: .08;
      }
    </style>
    <linearGradient id="linear-gradient" x1="63.651" y1="-27.494" x2="28.135" y2="54.06" gradientTransform="matrix(1, 0, 0, 1, 0, 0)" gradientUnits="userSpaceOnUse">
      <stop offset="0" stop-color="#009695"/>
      <stop offset="1" stop-color="#005e5d"/>
    </linearGradient>
    <linearGradient id="linear-gradient-2" x1="30.105" y1="39.943" x2="10.392" y2="63.158" gradientTransform="matrix(1, 0, 0, 1, 0, 0)" gradientUnits="userSpaceOnUse">
      <stop offset="0" stop-color="#00c4bb"/>
      <stop offset="1" stop-color="#009185"/>
    </linearGradient>
  </defs>
  <g id="Layer_6" data-name="Layer 6"/>
  <g id="Layer_5" data-name="Layer 5">
    <circle class="cls-4" cx="32" cy="39" r="24"/>
    <circle class="cls-3" cx="36" cy="36" r="24"/>
    <rect class="cls-2" x="24" y="23" width="10" height="2" rx="1" ry="1"/>
    <rect class="cls-2" x="28" y="19" width="2" height="10" rx="1" ry="1"/>
    <rect class="cls-2" x="45" y="43" width="2" height="8" rx="1" ry="1" transform="translate(93 1) rotate(90)"/>
    <rect class="cls-2" x="45" y="43" width="2" height="8" rx="1" ry="1" transform="translate(92 94) rotate(180)"/>
    <path class="cls-1" d="M50.496,27.697c-.976-.976-2.559-.976-3.536,0l-14.496,14.496-7.425-7.425c-.976-.976-2.559-.976-3.536,0-.976,.976-.976,2.559,0,3.535l9.192,9.192c.976,.976,2.559,.976,3.536,0l16.263-16.263c.976-.976,.976-2.559,0-3.535Z"/>
  </g>
  <g id="Layer_9" data-name="Layer 9"/>
  <g id="Layer_3" data-name="Layer 3"/>
  <g id="Layer_4" data-name="Layer 4"/>
  <g id="Layer_7" data-name="Layer 7"/>
</svg>