<?xml version="1.0" encoding="UTF-8"?>
<svg xmlns="http://www.w3.org/2000/svg" xmlns:xlink="http://www.w3.org/1999/xlink" viewBox="0 0 72 72">
  <defs>
    <style>
      .cls-1 {
        opacity: .08;
      }

      .cls-2 {
        opacity: .06;
      }

      .cls-3 {
        fill: url(#linear-gradient-2);
      }

      .cls-4 {
        fill: #f9d028;
      }

      .cls-5 {
        fill: #fff;
      }

      .cls-6 {
        fill: url(#linear-gradient);
      }
    </style>
    <linearGradient id="linear-gradient" x1="21.828" y1="64.878" x2="61.161" y2="6.212" gradientTransform="matrix(1, 0, 0, 1, 0, 0)" gradientUnits="userSpaceOnUse">
      <stop offset="0" stop-color="#009185"/>
      <stop offset="1" stop-color="#00c4bb"/>
    </linearGradient>
    <linearGradient id="linear-gradient-2" x1="44.816" y1="13.188" x2="30.769" y2="35.465" gradientTransform="matrix(1, 0, 0, 1, 0, 0)" gradientUnits="userSpaceOnUse">
      <stop offset="0" stop-color="#009595"/>
      <stop offset="1" stop-color="#005e5e"/>
    </linearGradient>
  </defs>
  <g id="Layer_6" data-name="Layer 6"/>
  <g id="Layer_5" data-name="Layer 5">
    <path class="cls-1" d="M46.409,36.01h0l-.022-.309c-.031-.447-.196-.853-.453-1.181-.428-.547-1.111-.878-1.856-.826l-.107,.007-.317-4.53c-.308-4.41-2.91-8.132-6.548-10.103h-.002c-.47-.256-.958-.479-1.461-.673-.044-.017-.086-.036-.13-.052-.213-.079-.429-.151-.647-.219-.129-.041-.26-.077-.391-.114-.189-.052-.378-.106-.57-.149-.311-.07-.626-.129-.944-.175-.126-.018-.254-.029-.381-.043-.255-.029-.512-.051-.772-.064-.119-.006-.237-.012-.357-.014-.372-.008-.746-.005-1.125,.021-6.851,.479-12.064,6.476-11.585,13.327l.317,4.53,1.189-.083-.115,.008-.889,.062h0l-.292,.02c-.596,.042-1.118,.321-1.482,.739-.091,.104-.172,.218-.241,.338-.139,.24-.233,.509-.271,.794-.019,.143-.024,.289-.013,.438l1.44,20.597c.083,1.192,1.117,2.09,2.309,2.007l25.126-1.757c1.192-.083,2.09-1.117,2.007-2.309l-1.419-20.288Zm-23.137-5.413c-.306-4.371,3.002-8.175,7.372-8.481,1.716-.12,3.341,.323,4.705,1.163h0c.254,.156,.497,.328,.732,.511l.055,.044c.224,.178,.438,.367,.641,.568,.012,.012,.025,.023,.037,.035,.43,.43,.813,.908,1.137,1.428,.011,.018,.021,.038,.032,.057,.138,.225,.263,.459,.378,.698,.035,.073,.066,.147,.099,.221,.086,.193,.163,.39,.234,.591,.032,.091,.063,.182,.091,.274,.062,.201,.113,.406,.16,.613,.02,.089,.043,.176,.06,.266,.055,.296,.098,.596,.119,.903l.317,4.53,.357-.025-16.211,1.134-.317-4.53Zm-1.948,4.688l1.74-.122-1.74,.122h0Z"/>
    <rect class="cls-6" x="21.036" y="31.562" width="29.514" height="24.973" rx="2.163" ry="2.163"/>
    <path class="cls-2" d="M23.491,31.562c-1.356,0-2.455,1.099-2.455,2.455v20.063c0,.871,.457,1.631,1.14,2.067l24.585-24.585H23.491Z"/>
    <path class="cls-3" d="M27.847,31.562v-4.541c0-4.381,3.565-7.946,7.946-7.946s7.946,3.565,7.946,7.946v4.541h4.541v-4.541c0-6.867-5.619-12.486-12.486-12.486s-12.486,5.619-12.486,12.486v4.541h4.541Z"/>
    <g class="cls-1">
      <path class="cls-5" d="M25.577,28.157c0-6.867,5.619-12.486,12.486-12.486,1.545,0,3.02,.298,4.389,.816-1.932-1.228-4.213-1.951-6.659-1.951-6.868,0-12.486,5.619-12.486,12.486v4.541h2.27v-3.405Z"/>
      <path class="cls-5" d="M46.009,31.562v-3.405c0-3.566-2.362-6.591-5.604-7.593,2.014,1.443,3.333,3.797,3.333,6.458v4.541h2.27Z"/>
    </g>
    <path class="cls-4" d="M50.55,34.035v-.31c0-1.195-.968-2.163-2.163-2.163H23.199c-1.195,0-2.163,.968-2.163,2.163v.31h29.514Z"/>
  </g>
  <g id="Layer_9" data-name="Layer 9"/>
  <g id="Layer_3" data-name="Layer 3"/>
  <g id="Layer_4" data-name="Layer 4"/>
  <g id="Layer_7" data-name="Layer 7"/>
</svg>