<?xml version="1.0" encoding="UTF-8"?>
<svg xmlns="http://www.w3.org/2000/svg" xmlns:xlink="http://www.w3.org/1999/xlink" viewBox="0 0 72 72">
  <defs>
    <style>
      .cls-1 {
        opacity: .1;
      }

      .cls-2 {
        fill: url(#linear-gradient-6);
      }

      .cls-3 {
        fill: url(#linear-gradient-3);
      }

      .cls-4 {
        fill: url(#linear-gradient-2);
      }

      .cls-5 {
        fill: url(#linear-gradient-4);
      }

      .cls-6 {
        fill: url(#linear-gradient-5);
      }

      .cls-7 {
        fill: url(#linear-gradient);
      }

      .cls-7, .cls-8, .cls-9, .cls-10 {
        fill-rule: evenodd;
      }

      .cls-11 {
        fill: #005e5d;
      }

      .cls-12, .cls-9 {
        fill: #009185;
      }

      .cls-13 {
        fill: #ffd100;
      }

      .cls-8 {
        opacity: .08;
      }

      .cls-9 {
        opacity: .3;
      }

      .cls-10 {
        fill: url(#linear-gradient-7);
      }

      .cls-14 {
        opacity: 0;
      }
    </style>
    <linearGradient id="linear-gradient" x1="62.675" y1="28.327" x2="9.916" y2="59.573" gradientTransform="matrix(1, 0, 0, 1, 0, 0)" gradientUnits="userSpaceOnUse">
      <stop offset="0" stop-color="#00c4bb"/>
      <stop offset="1" stop-color="#009185"/>
    </linearGradient>
    <linearGradient id="linear-gradient-2" x1="61.621" y1="18.41" x2="32.865" y2="47.166" xlink:href="#linear-gradient"/>
    <linearGradient id="linear-gradient-3" x1="448.25" y1="61.123" x2="460.25" y2="61.123" gradientTransform="translate(-408.583 55.709) rotate(-11)" gradientUnits="userSpaceOnUse">
      <stop offset="0" stop-color="#000" stop-opacity=".05"/>
      <stop offset="1" stop-color="#000" stop-opacity=".12"/>
    </linearGradient>
    <linearGradient id="linear-gradient-4" x1="436.25" y1="53.123" x2="446.25" y2="53.123" xlink:href="#linear-gradient-3"/>
    <linearGradient id="linear-gradient-5" x1="448.25" y1="46.123" x2="458.25" y2="46.123" xlink:href="#linear-gradient-3"/>
    <linearGradient id="linear-gradient-6" x1="45.366" y1="39.961" x2="27.753" y2="47.619" gradientTransform="matrix(1, 0, 0, 1, 0, 0)" gradientUnits="userSpaceOnUse">
      <stop offset="0" stop-color="#fff"/>
      <stop offset="1" stop-color="#e2e2e2"/>
    </linearGradient>
    <linearGradient id="linear-gradient-7" x1="1560.483" y1="653.406" x2="1543.602" y2="660.746" gradientTransform="translate(-1527.969 675.155) rotate(-45)" gradientUnits="userSpaceOnUse">
      <stop offset="0" stop-color="#f1f1f1"/>
      <stop offset="1" stop-color="#dfdfdf"/>
    </linearGradient>
  </defs>
  <g id="Layer_6" data-name="Layer 6"/>
  <g id="Layer_5" data-name="Layer 5">
    <g>
      <path class="cls-8" d="M58.955,30.185l-12.005,.839-1,.07h0l-28.929,2.023h0l-11.974,.837-.034,.002c-1.073,.075-1.896,1.03-1.819,2.132l1.744,24.94c.077,1.107,1.016,1.934,2.098,1.858l.04-.003,11.968-.837,1.897-.133,27.032-1.89,13.005-.909c1.073-.075,1.896-1.03,1.819-2.132l-1.744-24.94c-.077-1.107-1.016-1.934-2.098-1.858Z"/>
      <path class="cls-7" d="M7.996,31.035c0-1.104,.888-2,1.963-2h54.074c1.084,0,1.963,.89,1.963,2v25c0,1.104-.888,2-1.963,2H9.959c-1.084,0-1.963-.89-1.963-2V31.035Z"/>
      <rect class="cls-4" x="21.996" y="29.035" width="29" height="29"/>
      <path class="cls-9" d="M7.996,31.035c0-1.104,.892-2,1.997-2H51.998l-28.101,29H9.998c-1.106,0-2.003-.89-2.003-2V31.035Z"/>
      <circle class="cls-3" cx="48.984" cy="29.034" r="6"/>
      <circle class="cls-5" cx="34.696" cy="23.662" r="5"/>
      <circle class="cls-6" cx="45.14" cy="14.501" r="5"/>
      <circle class="cls-13" cx="50.453" cy="26.11" r="6"/>
      <circle class="cls-13" cx="36.165" cy="20.737" r="5"/>
      <circle class="cls-13" cx="46.609" cy="11.576" r="5"/>
      <circle class="cls-11" cx="14.695" cy="36.035" r="3"/>
      <circle class="cls-11" cx="58.695" cy="51.035" r="3"/>
      <circle class="cls-2" cx="35.996" cy="44.035" r="8"/>
      <path class="cls-10" d="M41.67,38.402c-3.124-3.124-8.19-3.124-11.314,0-3.124,3.124-3.124,8.19,0,11.314l11.314-11.314Z"/>
      <circle class="cls-1" cx="50.453" cy="26.11" r="6"/>
      <circle class="cls-14" cx="36.165" cy="20.737" r="5"/>
    </g>
    <path class="cls-12" d="M36.301,49.176c-2.479,0-3.517-1.135-3.811-3.502h-.798v-1.262h.714c-.014-.182-.014-.363-.014-.546,0-.196,0-.378,.014-.574h-.714v-1.261h.84c.379-2.367,1.569-3.404,3.698-3.404,.658,0,1.289,.07,2.367,.378l-.546,1.919c-.869-.294-1.219-.35-1.724-.35-.812,0-1.303,.252-1.513,1.457h3.166l-.14,1.261h-3.138c-.015,.196-.015,.378-.015,.574,0,.183,0,.364,.015,.546h3.277l-.14,1.262h-3.054c.195,1.372,.7,1.555,1.694,1.555,.532,0,.883-.057,1.751-.49l.393,1.961c-1.051,.393-1.653,.477-2.325,.477Z"/>
  </g>
  <g id="Layer_9" data-name="Layer 9"/>
  <g id="Layer_3" data-name="Layer 3"/>
  <g id="Layer_4" data-name="Layer 4"/>
  <g id="Layer_7" data-name="Layer 7"/>
</svg>