<?xml version="1.0" encoding="UTF-8"?>
<svg xmlns="http://www.w3.org/2000/svg" xmlns:xlink="http://www.w3.org/1999/xlink" viewBox="0 0 72 72">
  <defs>
    <style>
      .cls-1 {
        opacity: .08;
      }

      .cls-2 {
        fill: url(#linear-gradient-3);
      }

      .cls-3 {
        fill: url(#linear-gradient-2);
      }

      .cls-4 {
        fill: url(#linear-gradient-5);
      }

      .cls-5 {
        fill: #005e5d;
      }

      .cls-6 {
        fill: #ffd100;
      }

      .cls-7 {
        fill: url(#linear-gradient);
      }

      .cls-8 {
        fill: url(#linear-gradient-4);
        fill-rule: evenodd;
      }

      .cls-9 {
        fill: #fff;
        opacity: .5;
      }
    </style>
    <linearGradient id="linear-gradient" x1="38.652" y1="15.59" x2="20.772" y2="41.567" gradientTransform="matrix(1, 0, 0, 1, 0, 0)" gradientUnits="userSpaceOnUse">
      <stop offset="0" stop-color="#009695"/>
      <stop offset="1" stop-color="#005e5d"/>
    </linearGradient>
    <linearGradient id="linear-gradient-2" x1="36.818" y1="27.549" x2="14.55" y2="59.215" gradientTransform="matrix(1, 0, 0, 1, 0, 0)" gradientUnits="userSpaceOnUse">
      <stop offset="0" stop-color="#00c4bb"/>
      <stop offset="1" stop-color="#009185"/>
    </linearGradient>
    <linearGradient id="linear-gradient-3" x1="50.436" y1="20.103" x2="18.236" y2="63.149" xlink:href="#linear-gradient-2"/>
    <linearGradient id="linear-gradient-4" x1="67.715" y1="33.828" x2="58.052" y2="53.663" xlink:href="#linear-gradient-2"/>
    <linearGradient id="linear-gradient-5" x1="47.741" y1="19.333" x2="40.036" y2="41.685" xlink:href="#linear-gradient"/>
  </defs>
  <g id="Layer_6" data-name="Layer 6"/>
  <g id="Layer_5" data-name="Layer 5">
    <path class="cls-1" d="M64.592,51.456l-10.33-8.98-1.579-1.373c1.94-3.854-4.461,1.897-8.683,1.897-8,0-11.356-6.639-12-9-3-11,10.772-14.539,7.258-14.509-4.128,.035-8.224,1.77-11.139,5.123-1.358,1.562-2.33,3.329-2.929,5.185l-6.588,.461-3.274-2.778-10.613,.742c-1.385,.097-2.472,1.716-2.37,3.173l1.485,20.368c.102,1.457,1.319,2.57,2.704,2.473l.056-.004-.004,.023,28.893-2.021c1.387-.097,2.732-1.42,3.046-2.963,3.268,.178,6.571-.71,9.341-2.63l1.588,1.381h0l10.321,8.972c.861,.749,2.179,.657,2.928-.205l2.093-2.408c.749-.861,.657-2.179-.205-2.928Z"/>
    <path class="cls-7" d="M38.032,27.035h-14.736l-3.072-3H9.586c-1.389,0-2.586,1.539-2.586,3l.061,20.422c0,1.461,1.136,2.656,2.525,2.656h28.446c1.389,0,2.525-1.195,2.525-2.656V29.435c0-1.461-1.136-2.4-2.525-2.4Z"/>
    <path class="cls-3" d="M38.6,50.135H9.636l4.052-16.631c.381-1.566,1.857-2.847,3.28-2.847h26.374c1.423,0,2.275,1.281,1.894,2.847l-3.356,13.784c-.381,1.566-1.857,2.847-3.28,2.847Z"/>
    <g>
      <path class="cls-5" d="M34.886,41.087c2.355,2.355,5.246,3.853,8.283,4.504l-.169-17.556c0-1.634-1.102-3-2.657-3h-9.644c-1.689,5.686-.294,11.571,4.187,16.052Z"/>
      <path class="cls-2" d="M34.886,41.087c2.833,2.833,6.44,4.432,10.147,4.798l3.373-13.856c.427-1.753-.527-3.186-2.119-3.186H30.015c-.116,4.42,1.505,8.878,4.871,12.244Z"/>
    </g>
    <path class="cls-1" d="M34.569,40.184c-3.551-3.552-4.586-8.671-3.128-13.148h-4.147c-1.348,5.55,.121,11.651,4.447,15.976,2.788,2.788,6.317,4.384,9.958,4.815,.073-.175,.136-.354,.181-.539l.822-3.375c-2.967-.229-5.869-1.465-8.133-3.729Z"/>
    <g>
      <rect class="cls-6" x="50.605" y="37.511" width="7.341" height="8.226" transform="translate(-13.536 50.57) rotate(-45)"/>
      <path class="cls-8" d="M55.716,43.098c-.891,.891-1.875,1.629-2.911,2.247l9.67,9.67c.807,.807,2.128,.807,2.935,0l2.256-2.256c.807-.807,.807-2.128,0-2.935l-9.679-9.679c-.623,1.051-1.368,2.05-2.271,2.953Z"/>
    </g>
    <circle class="cls-9" cx="44.05" cy="31.308" r="11.699"/>
    <path class="cls-4" d="M54.249,41.598c-5.815,5.815-15.278,5.815-21.094,0s-5.815-15.278,0-21.094c5.815-5.815,15.278-5.815,21.094,0,5.815,5.815,5.815,15.278,0,21.094Zm-17.969-17.969c-4.092,4.092-4.092,10.751,0,14.844,4.092,4.092,10.751,4.092,14.844,0,4.092-4.092,4.092-10.751,0-14.844-4.092-4.092-10.751-4.092-14.844,0Z"/>
  </g>
  <g id="Layer_9" data-name="Layer 9"/>
  <g id="Layer_3" data-name="Layer 3"/>
  <g id="Layer_4" data-name="Layer 4"/>
  <g id="Layer_7" data-name="Layer 7"/>
</svg>