<svg xmlns="http://www.w3.org/2000/svg" xmlns:xlink="http://www.w3.org/1999/xlink" viewBox="0 0 72 72"><defs><style>.cls-1{opacity:0.08;}.cls-2{fill:url(#linear-gradient);}.cls-3{fill:url(#linear-gradient-2);}.cls-4{fill:url(#linear-gradient-3);}.cls-5{fill:url(#Nieuwe_verloopstaal_1);}.cls-6{fill:url(#Nieuwe_verloopstaal_1-2);}.cls-7{fill:url(#Nieuwe_verloopstaal_1-3);}.cls-8{fill:url(#linear-gradient-4);}.cls-9{fill:#005e5d;}.cls-10{fill:url(#linear-gradient-5);}.cls-11{fill:url(#linear-gradient-6);}.cls-12{fill:#009185;opacity:0.3;}.cls-13{fill:url(#linear-gradient-7);}.cls-14{fill:url(#linear-gradient-8);}.cls-15{fill:url(#linear-gradient-9);}</style><linearGradient id="linear-gradient" x1="-47.639" y1="-69.999" x2="106.724" y2="136.691" gradientUnits="userSpaceOnUse"><stop offset="0" stop-color="#39b5b2"/><stop offset="1" stop-color="#008f83"/></linearGradient><linearGradient id="linear-gradient-2" x1="-75.379" y1="-83.238" x2="89.948" y2="138.131" xlink:href="#linear-gradient"/><linearGradient id="linear-gradient-3" x1="42.572" y1="11.88" x2="33.572" y2="60.88" gradientUnits="userSpaceOnUse"><stop offset="0" stop-color="#009695"/><stop offset="1" stop-color="#005e5d"/></linearGradient><linearGradient id="Nieuwe_verloopstaal_1" x1="-7.775" y1="15.286" x2="42.495" y2="82.596" gradientUnits="userSpaceOnUse"><stop offset="0" stop-color="#e4bb02"/><stop offset="0.238" stop-color="#e4ba03"/><stop offset="1" stop-color="#ffcf03"/></linearGradient><linearGradient id="Nieuwe_verloopstaal_1-2" x1="3260.225" y1="15.286" x2="3310.495" y2="82.596" gradientTransform="matrix(-1, 0, 0, 1, 3335.544, 0)" xlink:href="#Nieuwe_verloopstaal_1"/><linearGradient id="Nieuwe_verloopstaal_1-3" x1="73.22" y1="-5.166" x2="0.865" y2="91.716" xlink:href="#Nieuwe_verloopstaal_1"/><linearGradient id="linear-gradient-4" x1="61.181" y1="3.396" x2="48.182" y2="20.424" xlink:href="#linear-gradient-3"/><linearGradient id="linear-gradient-5" x1="50.72" y1="15.302" x2="10.979" y2="35.671" gradientTransform="translate(2.775 0.507)" gradientUnits="userSpaceOnUse"><stop offset="0" stop-color="#00c4bb"/><stop offset="1" stop-color="#009185"/></linearGradient><linearGradient id="linear-gradient-6" x1="46.497" y1="12.085" x2="12.575" y2="29.473" xlink:href="#linear-gradient-5"/><linearGradient id="linear-gradient-7" x1="33.944" y1="8.822" x2="11.788" y2="30.978" gradientTransform="translate(2.775 0.507)" xlink:href="#linear-gradient-3"/><linearGradient id="linear-gradient-8" x1="41.394" y1="15.734" x2="20.477" y2="36.651" gradientTransform="translate(2.775 0.507)" xlink:href="#linear-gradient-3"/><linearGradient id="linear-gradient-9" x1="14.225" y1="-18533.497" x2="52.225" y2="-18533.497" gradientTransform="matrix(1, 0, 0, -0.051, 2.775, -909.882)" gradientUnits="userSpaceOnUse"><stop offset="0" stop-opacity="0.13"/><stop offset="0.454" stop-opacity="0.198"/><stop offset="1" stop-opacity="0.28"/></linearGradient></defs><title>pi</title><g id="Layer_7" data-name="Layer 7"><path class="cls-1" d="M55.765,48.39,33.818,49.924,32.493,30.971l8.23-.576,9.726-.68-.209-2.993-.354.025c-1.417-4.625-5.29-8.341-10.373-10.261l0,0c-.027-.011-.057-.019-.085-.03-.154-.057-.312-.108-.468-.162-.364-.127-.734-.243-1.108-.351-.157-.045-.312-.093-.47-.135q-.732-.192-1.488-.336c-.154-.029-.31-.054-.465-.08-.458-.078-.92-.143-1.389-.193-.1-.01-.194-.025-.293-.035-.553-.052-1.114-.079-1.679-.092-.14,0-.28,0-.421,0-.09,0-.18,0-.271,0l-.073-1.049a1.5,1.5,0,0,0-2.993.209l.074,1.06c-10,1.331-17.431,8.754-16.844,17.154l1-.069,8.728-.611,2.245-.157L29.5,31.18l1.326,18.954-5.416.378L14.391,40.933a5.015,5.015,0,0,0-7.054.494L4.057,45.2,7.83,48.481l8.468,7.36-5.559,6.267a2,2,0,1,0,3.019,2.624l5.5-6.321,2.722,2.366,3.563-.249,1.425-.1,2.066-.144,2.066-.145L45.7,59.118l3.6,3.129a2,2,0,0,0,2.624-3.019l-.592-.5,5.126-.359,4.988-.348L61.1,53.029A5.014,5.014,0,0,0,55.765,48.39Z"/><path class="cls-2" d="M64,52.035a5.015,5.015,0,0,1-5,5H28a5.015,5.015,0,0,1-5-5h0a5.015,5.015,0,0,1,5-5H59a5.015,5.015,0,0,1,5,5Z"/><path class="cls-3" d="M33.571,57.035c2.75,0,3.409-1.591,1.465-3.535L18.247,36.711a5.016,5.016,0,0,0-7.071,0h0a5.014,5.014,0,0,0,0,7.071L20.893,53.5a13.917,13.917,0,0,0,8.536,3.535Z"/><polygon class="cls-4" points="26.5 52.035 11.176 36.711 7.64 40.247 19.429 52.035 24.429 57.035 31.5 57.035 64 57.035 64 52.035 26.5 52.035"/><path class="cls-5" d="M31,50.035H20.824l-7.7,7.544a2,2,0,0,0,2.829,2.829l6.372-6.373H31Z"/><path class="cls-6" d="M36.544,50.035H46.72l7.7,7.544a2,2,0,0,1-2.829,2.829l-6.372-6.373H36.544Z"/><rect class="cls-7" x="22" y="50.035" width="17" height="4"/><rect class="cls-8" x="34" y="27.035" width="3" height="20"/><path class="cls-9" d="M35.5,9.535h0a1.5,1.5,0,0,1,1.5,1.5v5.5a0,0,0,0,1,0,0H34a0,0,0,0,1,0,0v-5.5A1.5,1.5,0,0,1,35.5,9.535Z"/><path class="cls-10" d="M45.25,28.035H55c0-8.836-8.73-16-19.5-16h0C40.885,12.035,45.25,19.2,45.25,28.035Z"/><path class="cls-11" d="M25.75,28.035H35.5v-16C30.115,12.035,25.75,19.2,25.75,28.035Z"/><path class="cls-12" d="M35.5,12.035h0c-10.77,0-19.5,7.164-19.5,16H28L45.018,14.072A22.793,22.793,0,0,0,35.5,12.035Z"/><path class="cls-13" d="M35.5,12.035c-10.77,0-19.5,7.164-19.5,16h9.75C25.75,19.2,30.115,12.035,35.5,12.035Z"/><path class="cls-14" d="M35.5,12.035v16h9.75C45.25,19.2,40.885,12.035,35.5,12.035Z"/><rect class="cls-15" x="17" y="25.035" width="38" height="3"/></g></svg>