<?xml version="1.0" encoding="UTF-8"?>
<svg xmlns="http://www.w3.org/2000/svg" xmlns:xlink="http://www.w3.org/1999/xlink" viewBox="0 0 72 72">
  <defs>
    <style>
      .cls-1 {
        opacity: .08;
      }

      .cls-2 {
        fill: url(#linear-gradient-6);
      }

      .cls-3 {
        fill: url(#linear-gradient-3);
      }

      .cls-4 {
        fill: url(#linear-gradient-2);
      }

      .cls-5 {
        fill: url(#linear-gradient-4);
      }

      .cls-6 {
        fill: url(#linear-gradient-5);
      }

      .cls-7 {
        fill: #ffd200;
      }

      .cls-8 {
        fill: url(#linear-gradient);
      }

      .cls-9 {
        opacity: .2;
      }

      .cls-10 {
        fill: #050505;
        opacity: .37;
      }
    </style>
    <linearGradient id="linear-gradient" x1="73.047" y1="11.912" x2="48.697" y2="66.55" gradientTransform="matrix(1, 0, 0, 1, 0, 0)" gradientUnits="userSpaceOnUse">
      <stop offset="0" stop-color="#009796"/>
      <stop offset="1" stop-color="#005e5d"/>
    </linearGradient>
    <linearGradient id="linear-gradient-2" x1="48.61" y1="-2.086" x2="10.915" y2="90.439" xlink:href="#linear-gradient"/>
    <linearGradient id="linear-gradient-3" x1="68.381" y1="5.361" x2="30.343" y2="98.727" xlink:href="#linear-gradient"/>
    <linearGradient id="linear-gradient-4" x1="42.333" y1="10.115" x2="30.948" y2="48.447" gradientTransform="matrix(1, 0, 0, 1, 0, 0)" gradientUnits="userSpaceOnUse">
      <stop offset="0" stop-color="#00c5bc"/>
      <stop offset="1" stop-color="#009286"/>
    </linearGradient>
    <linearGradient id="linear-gradient-5" x1="17.412" y1="32.134" x2="9.77" y2="47.641" gradientTransform="matrix(1, 0, 0, 1, 0, 0)" gradientUnits="userSpaceOnUse">
      <stop offset="0" stop-color="#fff"/>
      <stop offset="1" stop-color="#e3e3e3"/>
    </linearGradient>
    <linearGradient id="linear-gradient-6" x1="36.106" y1="-9.18" x2="11.077" y2="60.669" xlink:href="#linear-gradient"/>
  </defs>
  <g id="Layer_6" data-name="Layer 6"/>
  <g id="Layer_5" data-name="Layer 5">
    <path class="cls-1" d="M60.712,34.245c-.287-.292-.625-.535-.994-.716-.394-.193-.829-.375-1.236-.111-.043,.028-.083,.059-.12,.093-.124,.113-.22,.254-.288,.408-.114,.261-.144,.561-.08,.832,.094,.403,.384,.718,.728,.939,.323,.208,.57,.536,.598,.942,.045,.65-.457,1.22-1.116,1.266-.628,.044-1.13-.411-1.272-1.005-.251-1.05-.487-1.536-.595-1.678-2.051-7.715-10.33-13.135-19.83-12.47-4.701,.329-10.057,1.847-13.276,4.36-.039,.03-.095,.07-.145,.106-2.848-3.219-10.397-3.803-10.397-3.803,.281,4.012,1.049,6.893,2.221,8.934-1.277,1.067-2.471,2.126-4.252,2.54-1.126,.262-2.286,.308-3.438,.323-.432,.006-.864-.006-1.296-.003-.354,.002-.876-.073-1.168,.167-.265,.218-.144,1.436-.144,1.436,0,0,.069,1.106,.109,1.658,.087,1.21,.185,2.42,.313,3.627,.05,.467,.101,.935,.175,1.399,.033,.204,.044,.495,.161,.674,.148,.228,.355,.411,.558,.59,.39,.344,.78,.688,1.17,1.032,.235,.207,.474,.419,.625,.694,.162,.294,.21,.636,.318,.954,.226,.665,.705,1.209,1.199,1.705,2.701,2.714,5.979,4.282,9.623,5.214l.537,7.682,8.032-.562c.671-1.55,1.394-3.45,1.966-5.592,3.552,.173,7.116,.038,10.646-.382,.821-.098,1.635-.241,2.444-.41,.484,2.743,.968,5.263,.968,5.263l7.78-.544c-.413-5.912,.577-8.89,1.696-10.832,.217-.251,.436-.502,.636-.761,1.844-2.391,2.981-5.249,3.214-8.212,.491,.196,1.027,.299,1.588,.26,1.979-.138,3.486-1.847,3.349-3.798-.058-.83-.419-1.623-1.006-2.22Z"/>
    <path class="cls-8" d="M62.542,32.651c-.132,.252-.183,.549-.138,.824,.066,.408,.333,.743,.661,.988,.308,.23,.531,.575,.531,.982,0,.652-.541,1.185-1.202,1.185-.629,0-1.098-.489-1.198-1.091-.258-1.549-.573-1.926-.534-1.721l-1.874,1.627c0,1.955,1.623,3.555,3.606,3.555s3.606-1.6,3.606-3.555c0-.832-.305-1.648-.849-2.284-.266-.311-.586-.578-.942-.784-.379-.22-.801-.432-1.226-.197-.044,.025-.087,.053-.127,.084-.131,.105-.237,.238-.315,.387Z"/>
    <path class="cls-4" d="M34,43.491c0,6.039-2.189,11.119-3.948,14.509h-8.052v-9.814l12-4.695Z"/>
    <path class="cls-3" d="M53.914,58h-7.799s-1.114-9.249-1.114-11.665c0-2.59,2.54-3.827,4.457-4.335v4.439h7.543c-1.449,1.827-3.086,4.624-3.086,11.561Z"/>
    <path class="cls-5" d="M41.807,20c-4.712,0-10.161,1.141-13.548,3.423-.554,.373-2.221,1.246-4.192,2.282-.907,.476-1.898,.729-2.79,1.242-2.116,1.216-3.581,2.954-6.104,3.358-1.142,.183-2.302,.148-3.452,.083-.431-.024-.862-.066-1.293-.094-.353-.023-.869-.134-1.177,.085-.279,.199-.244,1.423-.244,1.423,0,0-.008,1.108-.007,1.662,.003,1.213,.016,2.427,.06,3.64,.017,.469,.036,.939,.078,1.407,.018,.206,.009,.497,.113,.684,.132,.238,.325,.435,.516,.628l1.095,1.111c.22,.223,.443,.452,.575,.736,.141,.304,.165,.649,.251,.974,.179,.68,.619,1.255,1.077,1.785,2.572,2.974,5.833,4.79,9.522,5.972,3.136,1.005,6.368,1.694,9.631,2.11,3.689,.47,7.42,.592,11.133,.412,1.436-.07,2.863-.248,4.271-.536,3.678-.752,7.278-3.032,9.728-5.787,2.477-2.785,3.952-6.35,3.952-10.056,0-9.136-8.593-16.543-19.193-16.543Z"/>
    <circle class="cls-6" cx="16" cy="35" r="2"/>
    <path class="cls-2" d="M29,33c-6.708,0-11-2.841-11-14,0,0,11,1.623,11,7v7Z"/>
    <path class="cls-10" d="M50,23c0,.55-.45,1-1,1h-15c-.55,0-1-.45-1-1s.45-1,1-1h15c.55,0,1,.45,1,1Z"/>
    <path class="cls-7" d="M49,18.5c0,1.27-.31,2.46-.88,3.5-.39,.76-.91,1.44-1.54,2h-10.16c-.63-.56-1.15-1.24-1.54-2-.57-1.04-.88-2.23-.88-3.5,0-4.14,3.36-7.5,7.5-7.5s7.5,3.36,7.5,7.5Z"/>
    <circle class="cls-9" cx="41.5" cy="18.5" r="5.5"/>
  </g>
  <g id="Layer_9" data-name="Layer 9"/>
  <g id="Layer_3" data-name="Layer 3"/>
  <g id="Layer_4" data-name="Layer 4"/>
  <g id="Layer_7" data-name="Layer 7"/>
</svg>